<svg xmlns="http://www.w3.org/2000/svg" xml:space="preserve" style="fill-rule:evenodd;clip-rule:evenodd;stroke-linecap:round;stroke-linejoin:round;stroke-miterlimit:10" viewBox="0 0 800 120"><path d="M22.5 20.5c.9.9 2.1.9 2.9.1l4-4c1.2-1.2 1.2-3.1 0-4.2l-1.8-1.8c-1.2-1.2-3.1-1.2-4.2 0l-4 4c-.8.8-.8 2.1 0 2.8l.1.1m-2 2c-.9-.9-2.1-.9-2.9-.1l-4 4c-1.2 1.2-1.2 3.1 0 4.2l1.8 1.8c1.2 1.2 3.1 1.2 4.2 0l4-4c.8-.8.8-2.1 0-2.8l-.1-.1m-4.4 1.4 7.8-7.8" style="fill:none;fill-rule:nonzero;stroke:#6887a3;stroke-width:2px"/><circle cx="219.7" cy="12.2" r="2.6" style="fill:none;stroke:#6887a3;stroke-width:2px"/><path d="M222.5 12.1h8.5m-22 0h8" style="fill:none;fill-rule:nonzero;stroke:#6887a3;stroke-width:2px"/><circle cx="214.6" cy="20" r="2.6" style="fill:none;stroke:#6887a3;stroke-width:2px"/><path d="M217 20.1h14m-22 0h3" style="fill:none;fill-rule:nonzero;stroke:#6887a3;stroke-width:2px"/><circle cx="223.6" cy="27.8" r="2.6" style="fill:none;stroke:#6887a3;stroke-width:2px"/><path d="M226 27.6h5m-22 0h12" style="fill:none;fill-rule:nonzero;stroke:#6887a3;stroke-width:2px"/><path d="M468.2 102.2c.4.4 1 .4 1.4 0l1.9-1.9c.6-.6.6-1.5 0-2.1l-.9-.9c-.6-.6-1.5-.6-2.1 0l-1.9 1.9c-.4.4-.4 1 0 1.4m-.8 1.2c-.4-.4-1-.4-1.4 0l-1.9 1.9c-.6.6-.6 1.5 0 2.1l.9.9c.6.6 1.5.6 2.1 0l1.9-1.9c.4-.4.4-1 0-1.4m-2.3.5 3.8-3.8M345.2 102.2c.4.4 1 .4 1.4 0l1.9-1.9c.6-.6.6-1.5 0-2.1l-.9-.9c-.6-.6-1.5-.6-2.1 0l-1.9 1.9c-.4.4-.4 1 0 1.4m-.8 1.2c-.4-.4-1-.4-1.4 0l-1.9 1.9c-.6.6-.6 1.5 0 2.1l.9.9c.6.6 1.5.6 2.1 0l1.9-1.9c.4-.4.4-1 0-1.4m-2.3.5 3.8-3.8" style="fill:none;fill-rule:nonzero;stroke:#fff;stroke-width:1.5px;stroke-miterlimit:4"/><path d="M259.1 29.5c-4-.5-7.2-3.9-7.2-8q0-1.95.9-3.6" style="fill:none;fill-rule:nonzero;stroke:#6887a3;stroke-width:2px;stroke-miterlimit:4;stroke-dasharray:5,5"/><path d="M259.1 13.4h.9c4.5 0 8.1 3.6 8.1 8.1 0 3.6-2.4 6.7-5.7 7.7" style="fill:none;fill-rule:nonzero;stroke:#6887a3;stroke-width:2px"/><path d="m261.2 10.5-4.2 3 4.2 3" style="fill:none;fill-rule:nonzero;stroke:#6887a3;stroke-width:2px"/><path d="M260.9 69.5c4-.5 7.2-3.9 7.2-8q0-1.95-.9-3.6" style="fill:none;fill-rule:nonzero;stroke:#6887a3;stroke-width:2px;stroke-miterlimit:4;stroke-dasharray:5,5"/><path d="M260.9 53.4h-.9c-4.5 0-8.1 3.6-8.1 8.1 0 3.6 2.4 6.7 5.7 7.7" style="fill:none;fill-rule:nonzero;stroke:#6887a3;stroke-width:2px"/><circle cx="380" cy="20" r="10.5" style="fill:none;stroke:#6887a3;stroke-width:2px"/><path d="M375.5 20h9m-4.5 4.5v-9" style="fill:none;fill-rule:nonzero;stroke:#6887a3;stroke-width:2px"/><path d="M375.5 20h9m-4.5 4.5v-9" style="fill:none;fill-rule:nonzero;stroke:#6887a3;stroke-width:3.71px" transform="matrix(.53863 0 0 .53863 540.166 96.323)"/><path d="M21.465 28.5a6.558 6.558 0 1 0 0-13.116 6.558 6.558 0 0 0 0 13.116" style="fill:none;fill-rule:nonzero;stroke:#6887a3;stroke-width:2px;stroke-miterlimit:4" transform="translate(723.383 85.154)"/><circle cx="420" cy="20" r="10.5" style="fill:none;stroke:#6887a3;stroke-width:2px"/><path d="M415.5 20h9M144.9 9.8v20.4m-6.2-20.4v20.4m11.5-20.4h-15.1c-3 0-5.3 2.4-5.3 5.3s2.4 5.3 5.3 5.3h3.6M70 25.7v1.7c0 1.4-1.2 2.6-2.6 2.6H52.6c-1.4 0-2.6-1.2-2.6-2.6v-1.7m10-.1V10m6.4 9.2L60 25.6l-6.4-6.4m46.4-6.3c0-2.1 5.7-3.8 12.6-3.8v18.1c-7 0-12.6 1.7-12.6 3.8 0-2.1-5.7-3.8-12.6-3.8V9c6.9 0 12.6 1.7 12.6 3.9m0 0v17.9m-2.7-15.5c-1.8-.7-4.3-1.2-7.1-1.4m7.1 4.7c-1.8-.7-4.3-1.2-7.1-1.4m7.1 4.7c-1.8-.7-4.3-1.2-7.1-1.4m7.1 4.7c-1.8-.7-4.3-1.2-7.1-1.4m12.5-8.5c1.8-.7 4.3-1.2 7.1-1.4m-7.1 4.7c1.8-.7 4.3-1.2 7.1-1.4m-7.1 4.7c1.8-.7 4.3-1.2 7.1-1.4m-7.1 4.7c1.8-.7 4.3-1.2 7.1-1.4m59.7-13.7h4.7v4.7h-4.7zm8.1 0h4.7v4.7h-4.7zm8.2 0h4.7v4.7h-4.7zm-16.3 7.5h4.7v4.7h-4.7zm8.1 0h4.7v4.7h-4.7zm8.2 0h4.7v4.7h-4.7zm-16.3 7.6h4.7v4.7h-4.7zm8.1 0h4.7v4.7h-4.7zm8.2 0h4.7v4.7h-4.7z" style="fill:none;fill-rule:nonzero;stroke:#6887a3;stroke-width:2px"/><path d="M169.5 10.1h4.7v4.7h-4.7zm16.3 1.7v-1.7h4.7m-21 7.5h4.7V30h-4.7zm8.1-7.6h4.7v12.3h-4.7zm12.9 12.3h-4.7v-1.7m-8.2 4.6h4.7v4.7h-4.7zm8.2 3.7v-3.7h4.728l-.028 1" style="fill:none;fill-rule:nonzero;stroke:#6887a3;stroke-width:2px" transform="translate(559.515 39)"/><path d="M259.1 13.4h.9c4.5 0 8.1 3.6 8.1 8.1 0 3.6-2.4 6.7-5.7 7.7" style="fill:none;fill-rule:nonzero;stroke:#6887a3;stroke-width:2px" transform="rotate(15 348.192 1889.207)"/><path d="m261.2 10.5-4.2 3 4.2 3" style="fill:none;fill-rule:nonzero;stroke:#6887a3;stroke-width:2px" transform="rotate(15 348.192 1889.207)"/><path d="M62.5 65.3v19.6l-9.7 9.8H35.1v7.8L17.5 80l17.6-22.5v7.8z" style="fill:none;fill-rule:nonzero;stroke:#6887a3;stroke-width:2px"/><path d="M52.4 94.2v-9.6H62M103.4 63v4.4L96.6 60l6.8-7.4V57" style="fill:none;fill-rule:nonzero;stroke:#6887a3;stroke-width:2px"/><path d="M107.4 52.6v14.8l-6.7-7.4zM99.3 63v4.4L92.6 60l6.7-7.4V57M105 92.6v14.8l-6.8-7.4zm-10 0v14.8M177.5 65.3v19.6l9.7 9.8h17.7v7.8L222.5 80l-17.6-22.5v7.8z" style="fill:none;fill-rule:nonzero;stroke:#6887a3;stroke-width:2px"/><path d="M187.6 94.2v-9.6H178M136.6 62.9l-.1 4.4 6.8-7.4-6.7-7.4v4.4" style="fill:none;fill-rule:nonzero;stroke:#6887a3;stroke-width:2px"/><path d="m132.6 52.4-.1 14.9 6.8-7.4zm8 10.5v4.4l6.8-7.4-6.7-7.4v4.4M135 92.6v14.8l6.8-7.4zm10 0v14.8" style="fill:none;fill-rule:nonzero;stroke:#6887a3;stroke-width:2px"/><path d="M377.1 68.4h-3.4c-.8 0-1.5-.7-1.5-1.5V53.4m14-1.8h-12.5c-.8 0-1.5.7-1.5 1.5s.7 1.5 1.5 1.5h12.5v2.3" style="fill:none;fill-rule:nonzero;stroke:#fff;stroke-width:1.5px;stroke-miterlimit:4"/><circle cx="383.2" cy="64" r="4.4" style="fill:none;stroke:#fff;stroke-width:1.5px;stroke-miterlimit:4"/><path d="M383.2 65.9v-3.7m-1.4 2.2 1.4 1.5 1.5-1.5M343.2 51.6h-9.8c-.8 0-1.5.7-1.5 1.5V67c0 .8.7 1.5 1.5 1.5h4.4" style="fill:none;fill-rule:nonzero;stroke:#fff;stroke-width:1.5px;stroke-miterlimit:4"/><circle cx="343.5" cy="64" r="4.4" style="fill:none;stroke:#fff;stroke-width:1.5px;stroke-miterlimit:4"/><path d="M343.5 65.9v-3.7m-1.5 2.2 1.5 1.5 1.5-1.5m-9.9 1.1h.5m-.5-10.8h7.6m-7.6 2.7h4.3m-4.3 2.7h1.6m-1.6 2.7h.3M377.1 108.4h-3.4c-.8 0-1.5-.7-1.5-1.5V93.4m14-1.8h-12.5c-.8 0-1.5.7-1.5 1.5s.7 1.5 1.5 1.5h12.5M343.2 91.6h-9.8c-.8 0-1.5.7-1.5 1.5V107c0 .8.7 1.5 1.5 1.5h4.4m-2.7-3h.5m-.5-10.8h7.6m-7.6 2.7h5.3m-5.3 2.7h2.6m-2.6 2.7h1.3M303 51.5v5m-5.2-5v17m9.6-17h-12.6c-2.5 0-4.5 2-4.5 4.5s2 4.5 4.5 4.5h3" style="fill:none;fill-rule:nonzero;stroke:#fff;stroke-width:1.5px;stroke-miterlimit:4"/><circle cx="305.1" cy="63.7" r="4.4" style="fill:none;stroke:#fff;stroke-width:1.5px;stroke-miterlimit:4"/><path d="M305.1 65.6v-3.7m-1.4 2.2 1.4 1.5 1.5-1.5" style="fill:none;fill-rule:nonzero;stroke:#fff;stroke-width:1.5px;stroke-miterlimit:4"/><path d="M272 92v10.7l-5.3 5.3H257v4.3l-9.6-12.3 9.6-12.3V92z" style="fill:none;fill-rule:nonzero;stroke:#6887a3;stroke-width:2px"/><path d="M267 108v-5h5" style="fill:none;fill-rule:nonzero;stroke:#6887a3;stroke-width:2px" transform="translate(-1 -1)"/><path d="M288 92v10.7l5.3 5.3h9.7v4.3l9.6-12.3-9.6-12.3V92z" style="fill:none;fill-rule:nonzero;stroke:#6887a3;stroke-width:2px"/><path d="M308 97.15v-2.754h-17.604v8.304l5.3 5.3h2.297" style="fill:none;fill-rule:nonzero;stroke:#6887a3;stroke-width:1.6px" transform="matrix(0 1.25188 1.25188 0 613.827 -275.542)"/><path d="M293 108v-5h-5" style="fill:none;fill-rule:nonzero;stroke:#6887a3;stroke-width:2px" transform="translate(1 -1)"/><path d="M295.396 107.201V103h-4.201" style="fill:none;fill-rule:nonzero;stroke:#6887a3;stroke-width:1.6px" transform="matrix(0 1.25188 1.25188 0 613.575 -275.29)"/><path d="m428 52.7-16.4 6.8L418 62z" style="fill:none;fill-rule:nonzero;stroke:#fff;stroke-width:1.5px;stroke-miterlimit:4"/><path d="m428 52.7-2.9 13.2L418 62zM418 62v5.7l2.5-4.3M428.2 102.2c.4.4 1 .4 1.4 0l1.9-1.9c.6-.6.6-1.5 0-2.1l-.9-.9c-.6-.6-1.5-.6-2.1 0l-1.9 1.9c-.4.4-.4 1 0 1.4m-.8 1.2c-.4-.4-1-.4-1.4 0l-1.9 1.9c-.6.6-.6 1.5 0 2.1l.9.9c.6.6 1.5.6 2.1 0l1.9-1.9c.4-.4.4-1 0-1.4m-2.3.5 3.8-3.8" style="fill:none;fill-rule:nonzero;stroke:#fff;stroke-width:1.5px;stroke-miterlimit:4"/><ellipse cx="420.4" cy="93.8" rx="7.9" ry="3.3" style="fill:none;stroke:#fff;stroke-width:1.5px;stroke-miterlimit:4"/><path d="M421.7 100.5h-1.2c-4.4 0-7.9-1.5-7.9-3.3m5.9 7c-3.4-.4-6-1.7-6-3.2" style="fill:none;fill-rule:nonzero;stroke:#fff;stroke-width:1.5px;stroke-miterlimit:4"/><path d="M420.4 108c-4.4 0-7.9-1.5-7.9-3.3V93.8M461 101.1h-8.3v-8.9h5m3.6 0h5v2" style="fill:none;fill-rule:nonzero;stroke:#fff;stroke-width:1.5px;stroke-miterlimit:4"/><path d="M457.7 91.5h3.7V93h-3.7zm3.2 9.6h-8.2c-.4 0-.7.3-.7.7s.3.7.7.7h6.4m0 .1v4.4m-4.5 0 2.2-4.4m2.3-12.6v1.5M468.3 59.8h-7v-8.7h4.4l2.6 2.6z" style="fill:none;fill-rule:nonzero;stroke:#fff;stroke-width:1.5px;stroke-miterlimit:4"/><path d="M465.7 51.1v2.6h2.6m0 17.5h-7v-8.8h4.4l2.6 2.6z" style="fill:none;fill-rule:nonzero;stroke:#fff;stroke-width:1.5px;stroke-miterlimit:4"/><path d="M465.7 62.4V65h2.6m-15.7-13.9v.8m0 4.4v.9m0-3.5v.9h.8m-.8 4.3v.9m0 1.8v.8m0 1.8v.8m0 1.8v.9h.8m1.8-13.1h.9m1.7 0h.9m1.7 0h.9m-6.1 13.1h.9m1.7 0h.9m1.7 0h.9" style="fill:none;fill-rule:nonzero;stroke:#fff;stroke-width:1.5px;stroke-miterlimit:4"/><circle cx="459.9" cy="20" r="8" style="fill:none;stroke:#fff;stroke-width:1.5px;stroke-miterlimit:4"/><path d="M458.3 24.4h3.9m-3.2-5.8h1.2V24M459.9 15.7q-.3 0-.3.3t.3.3.3-.3-.3-.3" style="fill:none;fill-rule:nonzero;stroke:#fff;stroke-width:1.5px;stroke-miterlimit:4"/><path d="M499.6 12c-4.4 0-8 3.6-8 8s3.6 8 8 8 8-3.6 8-8-3.6-8-8-8m0 14.5v-13c3.6 0 6.5 2.9 6.5 6.5s-2.9 6.5-6.5 6.5" style="fill:#fff;fill-rule:nonzero"/><path d="M490 52.3h19.2v17.5H490z" style="fill:none;fill-rule:nonzero;stroke:#fff;stroke-width:1.5px"/><path d="M490.8 52.5h4.4V70h-4.4z" style="fill:#fff;fill-rule:nonzero"/><path d="M495.2 52.5h4.4V70h-4.4z" style="fill:#fff;fill-opacity:.66;fill-rule:nonzero"/><path d="M499.6 52.5h4.4V70h-4.4z" style="fill:#fff;fill-opacity:.33;fill-rule:nonzero"/><path d="M499.6 90.3v.9m0 17.6v.9" style="fill:none;fill-rule:nonzero;stroke:#fff;stroke-width:1.5px"/><circle cx="499.6" cy="100" r="5.5" style="fill:#fff"/><path d="m506.4 93.2-.5.6m-12.5 12.4-.6.6m13.6 0-.5-.6m-12.5-12.4-.6-.6m16.5 6.8h-.9m-17.6 0h-.9" style="fill:none;fill-rule:nonzero;stroke:#fff;stroke-width:1.5px"/><path d="M531.3 12h3.8v3.8h-3.8z" style="fill:#fff;fill-rule:nonzero"/><path d="M537.4 12h3.8v3.8h-3.8z" style="fill:#fff;fill-opacity:.5;fill-rule:nonzero"/><path d="M543.5 12h3.8v3.8h-3.8z" style="fill:#fff;fill-rule:nonzero"/><path d="M531.3 18.1h3.8v3.8h-3.8z" style="fill:#fff;fill-opacity:.6;fill-rule:nonzero"/><path d="M537.4 18.1h3.8v3.8h-3.8z" style="fill:#fff;fill-rule:nonzero"/><path d="M543.5 18.1h3.8v3.8h-3.8z" style="fill:#fff;fill-opacity:.6;fill-rule:nonzero"/><path d="M531.3 24.2h3.8V28h-3.8z" style="fill:#fff;fill-opacity:.4;fill-rule:nonzero"/><path d="M537.4 24.2h3.8V28h-3.8z" style="fill:#fff;fill-opacity:.5;fill-rule:nonzero"/><path d="M543.5 24.2h3.8V28h-3.8z" style="fill:#fff;fill-rule:nonzero"/><path d="M532.1 54.5h14.5v13.1h-14.5z" style="fill:none;fill-rule:nonzero;stroke:#fff;stroke-width:1.5px"/><path d="m540.8 92.5-3.4 2.4 3.4 2.4" style="fill:none;fill-rule:nonzero;stroke:#fff;stroke-width:1.5px;stroke-miterlimit:4"/><path d="M539.3 94.7c3.5 0 6.4 2.9 6.4 6.4s-2.9 6.4-6.4 6.4-6.4-2.9-6.4-6.4" style="fill:none;fill-rule:nonzero;stroke:#fff;stroke-width:1.5px;stroke-miterlimit:4"/><path d="M532.1 67.7V54.5h14.5" style="fill:#fff;fill-rule:nonzero"/><circle cx="577.4" cy="18.6" r="8.2" style="fill:none;stroke:#6887a3;stroke-width:2px"/><path d="m589.2 30.5-6.1-6.1" style="fill:none;fill-rule:nonzero;stroke:#6887a3;stroke-width:2px"/><path d="M577.9 97.1c-.7-1-2-2.6-4-2.6-3 0-5.5 2.5-5.5 5.5s2.5 5.5 5.5 5.5c5 0 7-11 12-11 3 0 5.5 2.5 5.5 5.5s-2.5 5.5-5.5 5.5c-2.1 0-3.4-1.2-4.1-1.9" style="fill:none;fill-rule:nonzero;stroke:#fff;stroke-width:2px"/><path d="m574.7 97.4 3.5-.2-.1-3.5M618.3 27.4c1.5 1 3.6 1.6 5.4 1.6v-6m.1-11.1c-3.4 0-6.9 2.1-8.2 5h-2.3c-1.4 0-2.5 1.1-2.5 2.5v2c0 1.4 1.1 2.5 2.5 2.5m-1.5 6 17.4-17M613.3 56.5H611c-1.4 0-2.5 1.1-2.5 2.5v2c0 1.4 1.1 2.5 2.5 2.5h2.3c1.3 2.9 4.8 5 8.2 5v-17c-3.4 0-6.9 2.1-8.2 5M628 53c2.2 1.4 3.5 4.2 3.5 7 0 2.9-1.3 5.6-3.5 7m-3-11c1.6.5 2.5 2.2 2.5 4s-.9 3.5-2.5 4" style="fill:none;fill-rule:nonzero;stroke:#fff;stroke-width:2px"/><path d="M613 92.9V88h10.7l5.3 5.3V110h-16v-5" style="fill:none;fill-rule:nonzero;stroke:#6887a3;stroke-width:2px"/><path d="M629 93h-5v-5" style="fill:none;fill-rule:nonzero;stroke:#6887a3;stroke-width:2px" transform="translate(-1 1)"/><path d="M621.8 99h-11m5.9-5.3 5.5 5.5-5.5 5.5" style="fill:none;fill-rule:nonzero;stroke:#6887a3;stroke-width:2px"/><path d="M385.2 102.2c.4.4 1 .4 1.4 0l1.9-1.9c.6-.6.6-1.5 0-2.1l-.9-.9c-.6-.6-1.5-.6-2.1 0l-1.9 1.9c-.4.4-.4 1 0 1.4m-.8 1.2c-.4-.4-1-.4-1.4 0l-1.9 1.9c-.6.6-.6 1.5 0 2.1l.9.9c.6.6 1.5.6 2.1 0l1.9-1.9c.4-.4.4-1 0-1.4m-2.3.5 3.8-3.8" style="fill:none;fill-rule:nonzero;stroke:#fff;stroke-width:1.5px;stroke-miterlimit:4"/><path d="m258.8 50.5 4.2 3-4.2 3" style="fill:none;fill-rule:nonzero;stroke:#6887a3;stroke-width:2px"/><path d="M21.465 28.5a6.558 6.558 0 1 0 0-13.116 6.558 6.558 0 0 0 0 13.116" style="fill:none;fill-rule:nonzero;stroke:#6887a3;stroke-width:2px;stroke-miterlimit:4" transform="translate(644.57 5.037)"/><path d="M19.5 24.625V19l4.5 2.813z" style="fill:#6887a3;fill-rule:nonzero;stroke:#6887a3;stroke-width:1.13px;stroke-linecap:butt;stroke-miterlimit:4" transform="translate(644.57 5.037)"/><path d="M10.434 20.431H7.34c-1.883 0-3.363-1.415-3.363-3.215v-2.572c0-1.8 1.48-3.214 3.363-3.214h3.094C12.183 7.7 16.891 5 21.465 5v6.012" style="fill:none;fill-rule:nonzero;stroke:#6887a3;stroke-width:2.19px" transform="translate(644.57 5.037)"/><path d="M21.465 28.5a6.558 6.558 0 1 0 0-13.116 6.558 6.558 0 0 0 0 13.116" style="fill:none;fill-rule:nonzero;stroke:#6887a3;stroke-width:2px;stroke-miterlimit:4" transform="translate(684.326 5.2)"/><path d="m702.99 25.124 4.23 4.23" style="fill:none;stroke:#6887a3;stroke-width:2px;stroke-miterlimit:1.5" transform="translate(.686 -.097)"/><path d="m702.99 25.124 4.23 4.23" style="fill:none;stroke:#6887a3;stroke-width:2px;stroke-miterlimit:1.5" transform="rotate(90 705.497 27.533)"/><path d="M10.434 20.431H7.34c-1.883 0-3.363-1.415-3.363-3.215v-2.572c0-1.8 1.48-3.214 3.363-3.214h3.094C12.183 7.7 16.891 5 21.465 5v6.012" style="fill:none;fill-rule:nonzero;stroke:#6887a3;stroke-width:2.19px" transform="translate(684.326 5.2)"/><path d="M300 9.6v10.1m-5.5-4.6 5.5-5.5 5.5 5.5m-9.2 15.3v-7.8l7.4 7.3v-7.3M349.8 10.2l-7.4 7.4m-.4-7.4h7.8V18m-19.6 11.8 7.4-7.4m.4 7.4h-7.8V22M583.8 56.1l-7.4 7.4m-.4-7.4h7.8v7.8" style="fill:none;fill-rule:nonzero;stroke:#6887a3;stroke-width:2px"/><path d="M8.75 12.5h4.5M25.239 12.5h5.993M8.75 17.75h2.988M23.738 17.778l7.512-.028M8.75 23h2.238M24.488 23h6.751M8.75 28.25l2.25-.014M23 28.25h8.239M18.626 26.174q.251 1.304.354 2.63a2.37 2.37 0 0 1-.694 1.752 2.37 2.37 0 0 1-1.752.694 2.45 2.45 0 0 1-2.445-2.45" style="fill:none;fill-rule:nonzero;stroke:#6887a3;stroke-width:2px;stroke-miterlimit:4" transform="translate(640 40)"/><path d="M17.313 23.521a1.983 1.983 0 0 1 1.667-3.032c1.081 0 1.957.978 1.957 2.446a3.424 3.424 0 0 1-6.848 0c0-2.7 2.036-4.248 4.891-5.381 3.473-1.378 3.424-8.8.978-8.8s-2.934 4.398-2.934 6.846a44 44 0 0 0 .7 5.348" style="fill:none;fill-rule:nonzero;stroke:#6887a3;stroke-width:2px;stroke-miterlimit:4" transform="translate(640 40)"/><path d="M13.199 17.034a1.51 1.51 0 0 0-.729 1.105 1.5 1.5 0 0 0 .429 1.251l8.213 8.213a1.49 1.49 0 0 0 1.252.429 1.5 1.5 0 0 0 1.104-.729 7.52 7.52 0 0 0 .81-5.54l6.529-4.155a1.506 1.506 0 0 0 .61-1.762 1.5 1.5 0 0 0-.354-.564L25.22 9.439a1.503 1.503 0 0 0-2.326.255l-4.155 6.53a7.53 7.53 0 0 0-5.54.81M17.003 23.497 9 31.5" style="fill:none;fill-rule:nonzero;stroke:#6887a3;stroke-width:2px;stroke-miterlimit:4" transform="translate(640 80)"/><path d="M14.825 3.21c-.958-.639-1.444-1.3-1.444-1.96 0-.686-.564-1.25-1.25-1.25s-1.25.564-1.25 1.25v14.5c0 .137-.113.25-.25.25h-1.25c-2.194 0-4 1.806-4 4s1.806 4 4 4a4.117 4.117 0 0 0 4-4V5.728a.251.251 0 0 1 .4-.2c3.419 2.475 2.434 5.033 1.3 7.981l-.113.3c-.071.16-.108.333-.108.508 0 .686.564 1.25 1.25 1.25.541 0 1.024-.352 1.19-.867l.113-.293c1.153-3.007 2.899-7.539-2.588-11.197" style="fill:#6887a3;fill-rule:nonzero" transform="matrix(.91897 0 0 .91897 694.183 88)"/><path d="m689.358 95.101-6.575-6.575 6.523-6.523" style="fill:none;stroke:#6887a3;stroke-width:1.89px;stroke-miterlimit:1.5" transform="translate(-31.411 5.558)scale(1.05554)"/><path d="M14.825 3.21c-.958-.639-1.444-1.3-1.444-1.96 0-.686-.564-1.25-1.25-1.25s-1.25.564-1.25 1.25v14.5c0 .137-.113.25-.25.25h-1.25c-2.194 0-4 1.806-4 4s1.806 4 4 4a4.117 4.117 0 0 0 4-4V5.728a.251.251 0 0 1 .4-.2c3.419 2.475 2.434 5.033 1.3 7.981l-.113.3c-.071.16-.108.333-.108.508 0 .686.564 1.25 1.25 1.25.541 0 1.024-.352 1.19-.867l.113-.293c1.153-3.007 2.899-7.539-2.588-11.197" style="fill:#6887a3;fill-rule:nonzero" transform="matrix(.91897 0 0 .91897 684.349 48.972)"/><path d="m689.358 95.101-6.575-6.575 6.523-6.523" style="fill:none;stroke:#6887a3;stroke-width:1.89px;stroke-miterlimit:1.5" transform="rotate(-180 715.999 76.735)scale(1.05554)"/><path d="M.639 15.735a.49.49 0 0 0 .171.858l4.712 1.29a.5.5 0 0 0 .129.016h.002a.49.49 0 0 0 .487-.487v-.013l-.08-4.887a.491.491 0 0 0-.789-.377l-1.455 1.133a.249.249 0 0 1-.379-.091 7.53 7.53 0 0 1 .327-7.095 7.06 7.06 0 0 1 6.464-3.35q.049.004.098.004c.67 0 1.222-.552 1.222-1.222 0-.651-.52-1.194-1.171-1.221A9.56 9.56 0 0 0 1.686 4.8a10.04 10.04 0 0 0-.181 10 .25.25 0 0 1-.066.318zM15.831 13.538a7.08 7.08 0 0 1-6.464 3.35 1.228 1.228 0 0 0-1.32 1.218c0 .651.52 1.194 1.171 1.221a9.501 9.501 0 0 0 6.222-1.841.25.25 0 0 1 .324.024l4.883 4.843c.228.22.533.343.849.343a1.221 1.221 0 0 0 .873-2.077l-4.876-4.836a.25.25 0 0 1-.024-.327q.231-.305.441-.635a10.04 10.04 0 0 0 .176-10.007.25.25 0 0 1 .065-.317l.815-.641A.487.487 0 0 0 18.791 3l-4.722-1.263a.49.49 0 0 0-.615.488l.109 4.875a.49.49 0 0 0 .489.478.5.5 0 0 0 .3-.1l1.425-1.119a.25.25 0 0 1 .381.09 7.52 7.52 0 0 1-.327 7.089" style="fill:#6887a3;fill-rule:nonzero" transform="translate(729.259 8.874)"/><path d="M11.447 5.608c.552 0 1-.454 1-1.014 0-.561-.448-1.015-1-1.015-.553 0-1 .454-1 1.015s.447 1.014 1 1.014" style="fill:#fff;fill-rule:nonzero" transform="translate(772 11.708)"/><path d="M6.6 14.868a.17.17 0 0 0-.092-.081.16.16 0 0 0-.121.004.68.68 0 0 1-.746-.135l-4.114-4.174a.68.68 0 0 1 0-.956l7.334-7.44a.68.68 0 0 1 .472-.197h4.447a.335.335 0 0 1 .333.338v4.511a.68.68 0 0 1-.195.479l-.111.112a.2.2 0 0 0-.041.067.2.2 0 0 0-.007.079.15.15 0 0 0 .029.073q.023.034.059.052.434.236.819.55a.17.17 0 0 0 .118.037.17.17 0 0 0 .111-.056c.356-.373.554-.873.55-1.393V1.889c0-.359-.141-.703-.391-.957a1.33 1.33 0 0 0-.943-.396H9.333a1.96 1.96 0 0 0-1.414.595L.585 8.57A2.05 2.05 0 0 0 0 10.005c0 .538.21 1.054.585 1.434L4.7 15.614a1.983 1.983 0 0 0 2.38.338.2.2 0 0 0 .054-.048.2.2 0 0 0 .029-.066.2.2 0 0 0-.001-.073.2.2 0 0 0-.031-.065 5.5 5.5 0 0 1-.531-.832" style="fill:#fff;fill-rule:nonzero" transform="translate(772 11.708)"/><path d="M7.333 12.372c0 .87.254 1.719.731 2.442a4.35 4.35 0 0 0 1.944 1.62 4.29 4.29 0 0 0 4.723-.953 4.43 4.43 0 0 0 1.186-2.251 4.46 4.46 0 0 0-.247-2.54 4.38 4.38 0 0 0-1.596-1.973 4.3 4.3 0 0 0-2.407-.741 4.3 4.3 0 0 0-3.063 1.289 4.44 4.44 0 0 0-1.271 3.107m6-.507c.133 0 .26.053.354.148a.513.513 0 0 1 0 .718.5.5 0 0 1-.354.148h-1a.168.168 0 0 0-.166.169v1.015a.51.51 0 0 1-.147.359.495.495 0 0 1-.707 0 .51.51 0 0 1-.146-.359v-1.015a.17.17 0 0 0-.049-.119.17.17 0 0 0-.118-.05h-1a.5.5 0 0 1-.354-.148.514.514 0 0 1 0-.718.5.5 0 0 1 .354-.148h1a.169.169 0 0 0 .167-.169v-1.015c0-.134.052-.263.146-.358a.494.494 0 0 1 .707 0 .5.5 0 0 1 .147.358v1.015c0 .045.017.088.049.119.031.032.073.05.117.05z" style="fill:#fff;fill-rule:nonzero" transform="translate(772 11.708)"/></svg>