<?xml version="1.0" encoding="UTF-8" standalone="no"?>
<!-- Generator: Adobe Illustrator 21.0.2, SVG Export Plug-In . SVG Version: 6.00 Build 0)  -->

<svg
   version="1.1"
   id="Ebene_1"
   x="0px"
   y="0px"
   width="37.299999"
   height="31.1"
   viewBox="0 0 37.299999 31.1"
   xml:space="preserve"
   sodipodi:docname="dfgviewerIcon.svg"
   inkscape:version="1.1.2 (0a00cf5339, 2022-02-04)"
   xmlns:inkscape="http://www.inkscape.org/namespaces/inkscape"
   xmlns:sodipodi="http://sodipodi.sourceforge.net/DTD/sodipodi-0.dtd"
   xmlns="http://www.w3.org/2000/svg"
   xmlns:svg="http://www.w3.org/2000/svg"><defs
   id="defs75" /><sodipodi:namedview
   id="namedview73"
   pagecolor="#ffffff"
   bordercolor="#666666"
   borderopacity="1.0"
   inkscape:pageshadow="2"
   inkscape:pageopacity="0"
   inkscape:pagecheckerboard="0"
   showgrid="false"
   showguides="true"
   inkscape:guide-bbox="true"
   fit-margin-top="0"
   fit-margin-left="0"
   fit-margin-right="0"
   fit-margin-bottom="0"
   inkscape:zoom="17.664813"
   inkscape:cx="24.625225"
   inkscape:cy="13.671246"
   inkscape:window-width="2560"
   inkscape:window-height="1332"
   inkscape:window-x="0"
   inkscape:window-y="40"
   inkscape:window-maximized="1"
   inkscape:current-layer="Ebene_1"><sodipodi:guide
     position="37.147016,37.102911"
     orientation="1,0"
     id="guide892" /><sodipodi:guide
     position="34.602687,6.6208069"
     orientation="1,0"
     id="guide894" /></sodipodi:namedview>
<style
   type="text/css"
   id="style2">
	.st0{opacity:0.2;fill:#FFFFFF;}
	.st1{fill:#FFFFFF;}
</style>
<polygon
   class="st0"
   points="0,24.6 37.3,28.1 37.3,6.7 0,10.4 "
   id="polygon4"
   transform="translate(0,-2)" />
<polygon
   class="st0"
   points="0,24.6 33.5,30 33.5,4.9 0,10.4 "
   id="polygon6"
   transform="translate(0,-2)" />
<polygon
   class="st0"
   points="24.7,3.4 24.7,31.5 0,24.6 0,10.3 "
   id="polygon8"
   transform="translate(0,-2)" />
<polygon
   class="st0"
   points="20.5,2.5 20.5,32.4 0,24.6 0,10.3 "
   id="polygon10"
   transform="translate(0,-2)" />
<polygon
   class="st0"
   points="16.8,2 16.8,33.1 0,24.6 0,10.3 "
   id="polygon12"
   transform="translate(0,-2)" />
<polygon
   class="st0"
   points="0,24.6 29.2,31 29.2,4.4 0,10.4 "
   id="polygon14"
   transform="translate(0,-2)" />


<g
   id="g42"
   transform="translate(0,-2)">
</g>
<g
   id="g44"
   transform="translate(0,-2)">
</g>
<g
   id="g46"
   transform="translate(0,-2)">
</g>
<g
   id="g48"
   transform="translate(0,-2)">
</g>
<g
   id="g50"
   transform="translate(0,-2)">
</g>
<g
   id="g52"
   transform="translate(0,-2)">
</g>
<g
   id="g54"
   transform="translate(0,-2)">
</g>
<g
   id="g56"
   transform="translate(0,-2)">
</g>
<g
   id="g58"
   transform="translate(0,-2)">
</g>
<g
   id="g60"
   transform="translate(0,-2)">
</g>
<g
   id="g62"
   transform="translate(0,-2)">
</g>
<g
   id="g64"
   transform="translate(0,-2)">
</g>
<g
   id="g66"
   transform="translate(0,-2)">
</g>
<g
   id="g68"
   transform="translate(0,-2)">
</g>
<g
   id="g70"
   transform="translate(0,-2)">
</g>
</svg>
