<?xml version="1.0" encoding="utf-8"?>
<!-- Generator: Adobe Illustrator 21.0.2, SVG Export Plug-In . SVG Version: 6.00 Build 0)  -->
<svg version="1.1" id="Ebene_1" xmlns="http://www.w3.org/2000/svg" xmlns:xlink="http://www.w3.org/1999/xlink" x="0px" y="0px"
	 width="560px" height="120px" viewBox="0 0 560 120" style="enable-background:new 0 0 560 120;" xml:space="preserve">
<style type="text/css">
	.st0{fill:none;stroke:#6887A3;stroke-width:2;stroke-linecap:round;stroke-linejoin:round;stroke-miterlimit:10;}
	.st1{fill:none;stroke:#FFFFFF;stroke-width:1.5;stroke-linecap:round;stroke-linejoin:round;stroke-miterlimit:10;}
	
		.st2{fill:none;stroke:#6887A3;stroke-width:2;stroke-linecap:round;stroke-linejoin:round;stroke-miterlimit:10;stroke-dasharray:5;}
	.st3{fill:none;stroke:#FFFFFF;stroke-width:1.5;stroke-linejoin:round;stroke-miterlimit:10;}
	.st4{fill:#FFFFFF;}
	.st5{fill:none;stroke:#FFFFFF;stroke-width:1.5;stroke-miterlimit:10;}
	.st6{opacity:0.66;fill:#FFFFFF;}
	.st7{opacity:0.33;fill:#FFFFFF;}
	.st8{fill:none;stroke:#FFFFFF;stroke-width:1.5;stroke-linecap:round;stroke-miterlimit:10;}
	.st9{opacity:0.5;fill:#FFFFFF;}
	.st10{opacity:0.3;fill:#FFFFFF;}
	.st11{opacity:0.6;fill:#FFFFFF;}
	.st12{opacity:0.2;fill:#FFFFFF;}
	.st13{opacity:0.4;fill:#FFFFFF;}
</style>
<g>
	<path class="st0" d="M22.5,20.5L22.5,20.5c0.9,0.9,2.1,0.9,2.9,0.1l4-4c1.2-1.2,1.2-3.1,0-4.2l-1.8-1.8c-1.2-1.2-3.1-1.2-4.2,0
		l-4,4c-0.8,0.8-0.8,2.1,0,2.8l0.1,0.1"/>
	<path class="st0" d="M17.5,19.5L17.5,19.5c-0.9-0.9-2.1-0.9-2.9-0.1l-4,4c-1.2,1.2-1.2,3.1,0,4.2l1.8,1.8c1.2,1.2,3.1,1.2,4.2,0
		l4-4c0.8-0.8,0.8-2.1,0-2.8l-0.1-0.1"/>
	<line class="st0" x1="16.1" y1="23.9" x2="23.9" y2="16.1"/>
</g>
<g>
	<circle class="st0" cx="219.7" cy="12.2" r="2.6"/>
	<line class="st0" x1="222.5" y1="12.1" x2="231" y2="12.1"/>
	<line class="st0" x1="209" y1="12.1" x2="217" y2="12.1"/>
	<circle class="st0" cx="214.6" cy="20" r="2.6"/>
	<line class="st0" x1="217" y1="20.1" x2="231" y2="20.1"/>
	<line class="st0" x1="209" y1="20.1" x2="212" y2="20.1"/>
	<circle class="st0" cx="223.6" cy="27.8" r="2.6"/>
	<line class="st0" x1="226" y1="27.6" x2="231" y2="27.6"/>
	<line class="st0" x1="209" y1="27.6" x2="221" y2="27.6"/>
</g>
<g>
	<path class="st1" d="M345.2,102.2L345.2,102.2c0.4,0.4,1,0.4,1.4,0l1.9-1.9c0.6-0.6,0.6-1.5,0-2.1l-0.9-0.9c-0.6-0.6-1.5-0.6-2.1,0
		l-1.9,1.9c-0.4,0.4-0.4,1,0,1.4l0,0"/>
	<path class="st1" d="M342.8,101.8L342.8,101.8c-0.4-0.4-1-0.4-1.4,0l-1.9,1.9c-0.6,0.6-0.6,1.5,0,2.1l0.9,0.9
		c0.6,0.6,1.5,0.6,2.1,0l1.9-1.9c0.4-0.4,0.4-1,0-1.4l0,0"/>
	<line class="st1" x1="342.1" y1="103.9" x2="345.9" y2="100.1"/>
</g>
<g>
	<path class="st1" d="M468.2,102.2L468.2,102.2c0.4,0.4,1,0.4,1.4,0l1.9-1.9c0.6-0.6,0.6-1.5,0-2.1l-0.9-0.9c-0.6-0.6-1.5-0.6-2.1,0
		l-1.9,1.9c-0.4,0.4-0.4,1,0,1.4l0,0"/>
	<path class="st1" d="M465.8,101.8L465.8,101.8c-0.4-0.4-1-0.4-1.4,0l-1.9,1.9c-0.6,0.6-0.6,1.5,0,2.1l0.9,0.9
		c0.6,0.6,1.5,0.6,2.1,0l1.9-1.9c0.4-0.4,0.4-1,0-1.4l0,0"/>
	<line class="st1" x1="465.1" y1="103.9" x2="468.9" y2="100.1"/>
</g>
<g>
	<path class="st1" d="M385.2,102.2L385.2,102.2c0.4,0.4,1,0.4,1.4,0l1.9-1.9c0.6-0.6,0.6-1.5,0-2.1l-0.9-0.9c-0.6-0.6-1.5-0.6-2.1,0
		l-1.9,1.9c-0.4,0.4-0.4,1,0,1.4l0,0"/>
	<path class="st1" d="M382.8,101.8L382.8,101.8c-0.4-0.4-1-0.4-1.4,0l-1.9,1.9c-0.6,0.6-0.6,1.5,0,2.1l0.9,0.9
		c0.6,0.6,1.5,0.6,2.1,0l1.9-1.9c0.4-0.4,0.4-1,0-1.4l0,0"/>
	<line class="st1" x1="382.1" y1="103.9" x2="385.9" y2="100.1"/>
</g>
<g>
	<path class="st2" d="M259.1,29.5c-4-0.5-7.2-3.9-7.2-8c0-1.3,0.3-2.5,0.9-3.6"/>
	<path class="st0" d="M259.1,13.4c0.3,0,0.6,0,0.9,0c4.5,0,8.1,3.6,8.1,8.1c0,3.6-2.4,6.7-5.7,7.7"/>
	<polyline class="st0" points="261.2,10.5 257,13.5 261.2,16.5 	"/>
</g>
<g>
	<path class="st2" d="M260.9,69.5c4-0.5,7.2-3.9,7.2-8c0-1.3-0.3-2.5-0.9-3.6"/>
	<path class="st0" d="M260.9,53.4c-0.3,0-0.6,0-0.9,0c-4.5,0-8.1,3.6-8.1,8.1c0,3.6,2.4,6.7,5.7,7.7"/>
	<polyline class="st0" points="258.8,50.5 263,53.5 258.8,56.5 	"/>
</g>
<g>
	<g>
		<line class="st0" x1="349.8" y1="10.2" x2="341.4" y2="18.6"/>
		<polyline class="st0" points="342,10.2 349.8,10.2 349.8,18 		"/>
	</g>
	<g>
		<line class="st0" x1="330.2" y1="29.8" x2="338.6" y2="21.4"/>
		<polyline class="st0" points="338,29.8 330.2,29.8 330.2,22 		"/>
	</g>
</g>
<g>
	<g>
		<g>
			<line class="st0" x1="300" y1="9.6" x2="300" y2="19.7"/>
			<polyline class="st0" points="294.5,15.1 300,9.6 305.5,15.1 			"/>
		</g>
	</g>
	<polyline class="st0" points="296.3,30.4 296.3,22.6 303.7,29.9 303.7,22.6 	"/>
</g>
<circle class="st0" cx="380" cy="20" r="10.5"/>
<line class="st0" x1="375.5" y1="20" x2="384.5" y2="20"/>
<line class="st0" x1="380" y1="24.5" x2="380" y2="15.5"/>
<circle class="st0" cx="420" cy="20" r="10.5"/>
<line class="st0" x1="415.5" y1="20" x2="424.5" y2="20"/>
<g>
	<line class="st0" x1="144.9" y1="9.8" x2="144.9" y2="30.2"/>
	<line class="st0" x1="138.7" y1="9.8" x2="138.7" y2="30.2"/>
	<path class="st0" d="M150.2,9.8h-15.1c-3,0-5.3,2.4-5.3,5.3s2.4,5.3,5.3,5.3h3.6"/>
</g>
<g>
	<path class="st0" d="M70,25.7v1.7c0,1.4-1.2,2.6-2.6,2.6H52.6c-1.4,0-2.6-1.2-2.6-2.6v-1.7"/>
	<line class="st0" x1="60" y1="25.6" x2="60" y2="10"/>
	<polyline class="st0" points="66.4,19.2 60,25.6 53.6,19.2 	"/>
</g>
<g>
	<path class="st0" d="M100,12.9c0-2.1,5.7-3.8,12.6-3.8v18.1c-7,0-12.6,1.7-12.6,3.8c0-2.1-5.7-3.8-12.6-3.8V9
		C94.3,9,100,10.7,100,12.9z"/>
	<line class="st0" x1="100" y1="12.9" x2="100" y2="30.8"/>
	<path class="st0" d="M97.3,15.3c-1.8-0.7-4.3-1.2-7.1-1.4"/>
	<path class="st0" d="M97.3,18.6c-1.8-0.7-4.3-1.2-7.1-1.4"/>
	<path class="st0" d="M97.3,21.9c-1.8-0.7-4.3-1.2-7.1-1.4"/>
	<path class="st0" d="M97.3,25.2c-1.8-0.7-4.3-1.2-7.1-1.4"/>
	<path class="st0" d="M102.7,15.3c1.8-0.7,4.3-1.2,7.1-1.4"/>
	<path class="st0" d="M102.7,18.6c1.8-0.7,4.3-1.2,7.1-1.4"/>
	<path class="st0" d="M102.7,21.9c1.8-0.7,4.3-1.2,7.1-1.4"/>
	<path class="st0" d="M102.7,25.2c1.8-0.7,4.3-1.2,7.1-1.4"/>
</g>
<g>
	<g>
		<rect x="169.5" y="10.1" class="st0" width="4.7" height="4.7"/>
	</g>
	<g>
		<rect x="177.6" y="10.1" class="st0" width="4.7" height="4.7"/>
	</g>
	<g>
		<rect x="185.8" y="10.1" class="st0" width="4.7" height="4.7"/>
	</g>
	<g>
		<rect x="169.5" y="17.6" class="st0" width="4.7" height="4.7"/>
	</g>
	<g>
		<rect x="177.6" y="17.6" class="st0" width="4.7" height="4.7"/>
	</g>
	<g>
		<rect x="185.8" y="17.6" class="st0" width="4.7" height="4.7"/>
	</g>
	<g>
		<rect x="169.5" y="25.2" class="st0" width="4.7" height="4.7"/>
	</g>
	<g>
		<rect x="177.6" y="25.2" class="st0" width="4.7" height="4.7"/>
	</g>
	<g>
		<rect x="185.8" y="25.2" class="st0" width="4.7" height="4.7"/>
	</g>
</g>
<g>
	<polygon class="st0" points="62.5,76.7 62.5,84.9 52.8,94.7 35.1,94.7 35.1,102.5 17.5,80 35.1,57.5 35.1,65.3 62.5,65.3 	"/>
	<polyline class="st0" points="52.4,94.2 52.4,84.6 62,84.6 	"/>
</g>
<g>
	<polyline class="st0" points="103.4,63 103.4,67.4 96.6,60 103.4,52.6 103.4,57 	"/>
	<polygon class="st0" points="107.4,52.6 107.4,67.4 100.7,60 	"/>
	<polyline class="st0" points="99.3,63 99.3,67.4 92.6,60 99.3,52.6 99.3,57 	"/>
</g>
<g>
	<polygon class="st0" points="105,92.6 105,107.4 98.2,100 	"/>
	<line class="st0" x1="95" y1="92.6" x2="95" y2="107.4"/>
</g>
<g>
	<polygon class="st0" points="177.5,76.7 177.5,84.9 187.2,94.7 204.9,94.7 204.9,102.5 222.5,80 204.9,57.5 204.9,65.3 177.5,65.3 
			"/>
	<polyline class="st0" points="187.6,94.2 187.6,84.6 178,84.6 	"/>
</g>
<g>
	<polyline class="st0" points="136.6,62.9 136.5,67.3 143.3,59.9 136.6,52.5 136.6,56.9 	"/>
	<polygon class="st0" points="132.6,52.4 132.5,67.3 139.3,59.9 	"/>
	<polyline class="st0" points="140.6,62.9 140.6,67.3 147.4,59.9 140.7,52.5 140.7,56.9 	"/>
</g>
<g>
	<polygon class="st0" points="135,92.6 135,107.4 141.8,100 	"/>
	<line class="st0" x1="145" y1="92.6" x2="145" y2="107.4"/>
</g>
<g>
	<path class="st1" d="M377.1,68.4h-3.4c-0.8,0-1.5-0.7-1.5-1.5V53.4"/>
	<path class="st1" d="M386.2,51.6h-12.5c-0.8,0-1.5,0.7-1.5,1.5c0,0.8,0.7,1.5,1.5,1.5h12.5v2.3"/>
	<circle class="st1" cx="383.2" cy="64" r="4.4"/>
	<line class="st1" x1="383.2" y1="65.9" x2="383.2" y2="62.2"/>
	<polyline class="st1" points="381.8,64.4 383.2,65.9 384.7,64.4 	"/>
</g>
<g>
	<path class="st1" d="M343.2,51.6h-9.8c-0.8,0-1.5,0.7-1.5,1.5v0.4V67c0,0.8,0.7,1.5,1.5,1.5h4.4"/>
	<circle class="st1" cx="343.5" cy="64" r="4.4"/>
	<line class="st1" x1="343.5" y1="65.9" x2="343.5" y2="62.2"/>
	<polyline class="st1" points="342,64.4 343.5,65.9 345,64.4 	"/>
	<g>
		<line class="st1" x1="335.1" y1="65.5" x2="335.6" y2="65.5"/>
		<line class="st1" x1="335.1" y1="54.7" x2="342.7" y2="54.7"/>
		<line class="st1" x1="335.1" y1="57.4" x2="339.4" y2="57.4"/>
		<line class="st1" x1="335.1" y1="60.1" x2="336.7" y2="60.1"/>
		<line class="st1" x1="335.1" y1="62.8" x2="335.4" y2="62.8"/>
	</g>
</g>
<g>
	<path class="st1" d="M377.1,108.4h-3.4c-0.8,0-1.5-0.7-1.5-1.5V93.4"/>
	<path class="st1" d="M386.2,91.6h-12.5c-0.8,0-1.5,0.7-1.5,1.5c0,0.8,0.7,1.5,1.5,1.5h12.5"/>
</g>
<g>
	<path class="st1" d="M343.2,91.6h-9.8c-0.8,0-1.5,0.7-1.5,1.5v0.4V107c0,0.8,0.7,1.5,1.5,1.5h4.4"/>
	<g>
		<line class="st1" x1="335.1" y1="105.5" x2="335.6" y2="105.5"/>
		<line class="st1" x1="335.1" y1="94.7" x2="342.7" y2="94.7"/>
		<line class="st1" x1="335.1" y1="97.4" x2="340.4" y2="97.4"/>
		<line class="st1" x1="335.1" y1="100.1" x2="337.7" y2="100.1"/>
		<line class="st1" x1="335.1" y1="102.8" x2="336.4" y2="102.8"/>
	</g>
</g>
<g>
	<g>
		<line class="st1" x1="303" y1="51.5" x2="303" y2="56.5"/>
		<line class="st1" x1="297.8" y1="51.5" x2="297.8" y2="68.5"/>
		<path class="st1" d="M307.4,51.5h-12.6c-2.5,0-4.5,2-4.5,4.5c0,2.5,2,4.5,4.5,4.5h3"/>
	</g>
	<circle class="st1" cx="305.1" cy="63.7" r="4.4"/>
	<line class="st1" x1="305.1" y1="65.6" x2="305.1" y2="61.9"/>
	<polyline class="st1" points="303.7,64.1 305.1,65.6 306.6,64.1 	"/>
</g>
<g>
	<polygon class="st0" points="272,98.2 272,102.7 266.7,108 257,108 257,112.3 247.4,100 257,87.7 257,92 272,92 	"/>
	<polyline class="st0" points="267,108 267,103 272,103 	"/>
</g>
<g>
	<polygon class="st0" points="288,98.2 288,102.7 293.3,108 303,108 303,112.3 312.6,100 303,87.7 303,92 288,92 	"/>
	<polyline class="st0" points="293,108 293,103 288,103 	"/>
</g>
<g>
	<polygon class="st3" points="428,52.7 411.6,59.5 418,62 	"/>
	<polygon class="st3" points="428,52.7 425.1,65.9 418,62 	"/>
	<polyline class="st3" points="418,62 418,67.7 420.5,63.4 	"/>
</g>
<g>
	<g>
		<path class="st1" d="M428.2,102.2L428.2,102.2c0.4,0.4,1,0.4,1.4,0l1.9-1.9c0.6-0.6,0.6-1.5,0-2.1l-0.9-0.9
			c-0.6-0.6-1.5-0.6-2.1,0l-1.9,1.9c-0.4,0.4-0.4,1,0,1.4l0,0"/>
		<path class="st1" d="M425.8,101.8L425.8,101.8c-0.4-0.4-1-0.4-1.4,0l-1.9,1.9c-0.6,0.6-0.6,1.5,0,2.1l0.9,0.9
			c0.6,0.6,1.5,0.6,2.1,0l1.9-1.9c0.4-0.4,0.4-1,0-1.4l0,0"/>
		<line class="st1" x1="425.1" y1="103.9" x2="428.9" y2="100.1"/>
	</g>
	<g>
		<path class="st1" d="M427,103"/>
	</g>
	<g>
		<g>
			<g>
				<ellipse class="st1" cx="420.4" cy="93.8" rx="7.9" ry="3.3"/>
				<path class="st1" d="M421.7,100.5c-0.4,0-0.8,0-1.2,0c-4.4,0-7.9-1.5-7.9-3.3"/>
				<path class="st1" d="M418.5,104.2c-3.4-0.4-6-1.7-6-3.2"/>
				<path class="st1" d="M420.4,108c-4.4,0-7.9-1.5-7.9-3.3V93.8"/>
			</g>
			<path class="st1" d="M428.3,93.8"/>
		</g>
	</g>
</g>
<g>
	<polyline class="st1" points="461,101.1 452.7,101.1 452.7,92.2 457.7,92.2 	"/>
	<polyline class="st1" points="461.3,92.2 466.3,92.2 466.3,94.2 	"/>
	<rect x="457.7" y="91.5" class="st1" width="3.7" height="1.5"/>
	<path class="st1" d="M460.9,101.1h-8.2c-0.4,0-0.7,0.3-0.7,0.7c0,0.4,0.3,0.7,0.7,0.7h6.4"/>
	<line class="st1" x1="459.1" y1="102.6" x2="459.1" y2="107"/>
	<line class="st1" x1="454.6" y1="107" x2="456.8" y2="102.6"/>
	<line class="st1" x1="459.1" y1="90" x2="459.1" y2="91.5"/>
</g>
<g>
	<polygon class="st1" points="468.3,59.8 461.3,59.8 461.3,51.1 465.7,51.1 468.3,53.7 	"/>
	<polyline class="st1" points="465.7,51.1 465.7,53.7 468.3,53.7 	"/>
	<polygon class="st1" points="468.3,71.2 461.3,71.2 461.3,62.4 465.7,62.4 468.3,65 	"/>
	<polyline class="st1" points="465.7,62.4 465.7,65 468.3,65 	"/>
	<line class="st1" x1="452.6" y1="51.1" x2="452.6" y2="51.9"/>
	<line class="st1" x1="452.6" y1="56.3" x2="452.6" y2="57.2"/>
	<polyline class="st1" points="452.6,53.7 452.6,54.6 453.4,54.6 	"/>
	<line class="st1" x1="452.6" y1="58.9" x2="452.6" y2="59.8"/>
	<line class="st1" x1="452.6" y1="61.6" x2="452.6" y2="62.4"/>
	<line class="st1" x1="452.6" y1="64.2" x2="452.6" y2="65"/>
	<polyline class="st1" points="452.6,66.8 452.6,67.7 453.4,67.7 	"/>
	<line class="st1" x1="455.2" y1="54.6" x2="456.1" y2="54.6"/>
	<line class="st1" x1="457.8" y1="54.6" x2="458.7" y2="54.6"/>
	<line class="st1" x1="460.4" y1="54.6" x2="461.3" y2="54.6"/>
	<line class="st1" x1="455.2" y1="67.7" x2="456.1" y2="67.7"/>
	<line class="st1" x1="457.8" y1="67.7" x2="458.7" y2="67.7"/>
	<line class="st1" x1="460.4" y1="67.7" x2="461.3" y2="67.7"/>
</g>
<g>
	<circle class="st1" cx="459.9" cy="20" r="8"/>
	<g>
		<line class="st1" x1="458.3" y1="24.4" x2="462.2" y2="24.4"/>
		<polyline class="st1" points="459,18.6 460.2,18.6 460.2,24 		"/>
		<g>
			<path class="st3" d="M459.9,15.7c-0.2,0-0.3,0.1-0.3,0.3c0,0.2,0.1,0.3,0.3,0.3c0.2,0,0.3-0.1,0.3-0.3
				C460.2,15.8,460.1,15.7,459.9,15.7L459.9,15.7z"/>
		</g>
	</g>
</g>
<g>
	<g>
		<path class="st4" d="M499.6,12L499.6,12L499.6,12c-4.4,0-8,3.6-8,8c0,4.4,3.6,8,8,8l0,0h0c4.4,0,8-3.6,8-8
			C507.6,15.6,504,12,499.6,12z M499.6,26.5L499.6,26.5l0-13h0c3.6,0,6.5,2.9,6.5,6.5C506.1,23.6,503.2,26.5,499.6,26.5z"/>
	</g>
</g>
<g>
	<rect x="490" y="52.3" class="st5" width="19.2" height="17.5"/>
	<rect x="490.8" y="52.5" class="st4" width="4.4" height="17.5"/>
	<rect x="495.2" y="52.5" class="st6" width="4.4" height="17.5"/>
	<rect x="499.6" y="52.5" class="st7" width="4.4" height="17.5"/>
</g>
<g>
	<line class="st8" x1="499.6" y1="90.3" x2="499.6" y2="91.2"/>
	<line class="st8" x1="499.6" y1="108.8" x2="499.6" y2="109.7"/>
	<g>
		<circle class="st4" cx="499.6" cy="100" r="5.5"/>
	</g>
	<line class="st8" x1="506.4" y1="93.2" x2="505.9" y2="93.8"/>
	<line class="st8" x1="493.4" y1="106.2" x2="492.8" y2="106.8"/>
	<line class="st8" x1="506.4" y1="106.8" x2="505.9" y2="106.2"/>
	<line class="st8" x1="493.4" y1="93.8" x2="492.8" y2="93.2"/>
	<line class="st8" x1="509.3" y1="100" x2="508.4" y2="100"/>
	<line class="st8" x1="490.8" y1="100" x2="489.9" y2="100"/>
</g>
<g>
	<rect x="531.3" y="12" class="st4" width="3.8" height="3.8"/>
	<rect x="537.4" y="12" class="st9" width="3.8" height="3.8"/>
	<rect x="543.5" y="12" class="st10" width="3.8" height="3.8"/>
	<rect x="531.3" y="18.1" class="st11" width="3.8" height="3.8"/>
	<rect x="537.4" y="18.1" class="st12" width="3.8" height="3.8"/>
	<rect x="543.5" y="18.1" class="st11" width="3.8" height="3.8"/>
	<rect x="531.3" y="24.2" class="st13" width="3.8" height="3.8"/>
	<rect x="537.4" y="24.2" class="st9" width="3.8" height="3.8"/>
	<rect x="543.5" y="24.2" class="st4" width="3.8" height="3.8"/>
</g>
<g>
	<rect x="532.1" y="54.5" class="st5" width="14.5" height="13.1"/>
</g>
<g>
	<g>
		<polyline class="st1" points="540.8,92.5 537.4,94.9 540.8,97.3 		"/>
	</g>
	<path class="st1" d="M539.3,94.7c3.5,0,6.4,2.9,6.4,6.4s-2.9,6.4-6.4,6.4c-3.5,0-6.4-2.9-6.4-6.4"/>
</g>
<g>
	<polyline class="st4" points="532.1,67.7 532.1,54.5 546.6,54.5 	"/>
</g>
<g>
</g>
<g>
</g>
<g>
</g>
<g>
</g>
<g>
</g>
<g>
</g>
<g>
</g>
<g>
</g>
<g>
</g>
<g>
</g>
<g>
</g>
<g>
</g>
<g>
</g>
<g>
</g>
<g>
</g>
</svg>
