<svg xmlns="http://www.w3.org/2000/svg" width="560" height="120" viewBox="0 0 560 120"><style type="text/css">.st0{fill:none;stroke:#6887A3;stroke-width:2;stroke-linecap:round;stroke-linejoin:round;stroke-miterlimit:10;} .st1{fill:none;stroke:#FFFFFF;stroke-width:1.5;stroke-linecap:round;stroke-linejoin:round;stroke-miterlimit:10;} .st2{fill:none;stroke:#6887A3;stroke-width:2;stroke-linecap:round;stroke-linejoin:round;stroke-miterlimit:10;stroke-dasharray:5;} .st3{fill:none;stroke:#FFFFFF;stroke-width:1.5;stroke-linejoin:round;stroke-miterlimit:10;} .st4{fill:#FFFFFF;} .st5{fill:none;stroke:#FFFFFF;stroke-width:1.5;stroke-miterlimit:10;} .st6{opacity:0.66;fill:#FFFFFF;} .st7{opacity:0.33;fill:#FFFFFF;} .st8{fill:none;stroke:#FFFFFF;stroke-width:1.5;stroke-linecap:round;stroke-miterlimit:10;} .st9{opacity:0.5;fill:#FFFFFF;} .st10{opacity:0.3;fill:#FFFFFF;} .st11{opacity:0.6;fill:#FFFFFF;} .st12{opacity:0.2;fill:#FFFFFF;} .st13{opacity:0.4;fill:#FFFFFF;}</style><path class="st0" d="M22.5 20.5c.9.9 2.1.9 2.9.1l4-4c1.2-1.2 1.2-3.1 0-4.2l-1.8-1.8c-1.2-1.2-3.1-1.2-4.2 0l-4 4c-.8.8-.8 2.1 0 2.8l.1.1M17.5 19.5c-.9-.9-2.1-.9-2.9-.1l-4 4c-1.2 1.2-1.2 3.1 0 4.2l1.8 1.8c1.2 1.2 3.1 1.2 4.2 0l4-4c.8-.8.8-2.1 0-2.8l-.1-.1M16.1 23.9l7.8-7.8"/><circle class="st0" cx="219.7" cy="12.2" r="2.6"/><path class="st0" d="M222.5 12.1h8.5M209 12.1h8"/><circle class="st0" cx="214.6" cy="20" r="2.6"/><path class="st0" d="M217 20.1h14M209 20.1h3"/><circle class="st0" cx="223.6" cy="27.8" r="2.6"/><path class="st0" d="M226 27.6h5M209 27.6h12"/><path class="st1" d="M345.2 102.2c.4.4 1 .4 1.4 0l1.9-1.9c.6-.6.6-1.5 0-2.1l-.9-.9c-.6-.6-1.5-.6-2.1 0l-1.9 1.9c-.4.4-.4 1 0 1.4M342.8 101.8c-.4-.4-1-.4-1.4 0l-1.9 1.9c-.6.6-.6 1.5 0 2.1l.9.9c.6.6 1.5.6 2.1 0l1.9-1.9c.4-.4.4-1 0-1.4M342.1 103.9l3.8-3.8M468.2 102.2c.4.4 1 .4 1.4 0l1.9-1.9c.6-.6.6-1.5 0-2.1l-.9-.9c-.6-.6-1.5-.6-2.1 0l-1.9 1.9c-.4.4-.4 1 0 1.4M465.8 101.8c-.4-.4-1-.4-1.4 0l-1.9 1.9c-.6.6-.6 1.5 0 2.1l.9.9c.6.6 1.5.6 2.1 0l1.9-1.9c.4-.4.4-1 0-1.4M465.1 103.9l3.8-3.8M385.2 102.2c.4.4 1 .4 1.4 0l1.9-1.9c.6-.6.6-1.5 0-2.1l-.9-.9c-.6-.6-1.5-.6-2.1 0l-1.9 1.9c-.4.4-.4 1 0 1.4M382.8 101.8c-.4-.4-1-.4-1.4 0l-1.9 1.9c-.6.6-.6 1.5 0 2.1l.9.9c.6.6 1.5.6 2.1 0l1.9-1.9c.4-.4.4-1 0-1.4M382.1 103.9l3.8-3.8"/><path class="st2" d="M259.1 29.5c-4-.5-7.2-3.9-7.2-8 0-1.3.3-2.5.9-3.6"/><path class="st0" d="M259.1 13.4h.9c4.5 0 8.1 3.6 8.1 8.1 0 3.6-2.4 6.7-5.7 7.7M261.2 10.5l-4.2 3 4.2 3"/><path class="st2" d="M260.9 69.5c4-.5 7.2-3.9 7.2-8 0-1.3-.3-2.5-.9-3.6"/><path class="st0" d="M260.9 53.4h-.9c-4.5 0-8.1 3.6-8.1 8.1 0 3.6 2.4 6.7 5.7 7.7M258.8 50.5l4.2 3-4.2 3M349.8 10.2l-8.4 8.4M342 10.2h7.8v7.8M330.2 29.8l8.4-8.4M338 29.8h-7.8v-7.8M300 9.6v10.1M294.5 15.1l5.5-5.5 5.5 5.5M296.3 30.4v-7.8l7.4 7.3v-7.3"/><circle class="st0" cx="380" cy="20" r="10.5"/><path class="st0" d="M375.5 20h9M380 24.5v-9"/><circle class="st0" cx="420" cy="20" r="10.5"/><path class="st0" d="M415.5 20h9M144.9 9.8v20.4M138.7 9.8v20.4M150.2 9.8h-15.1c-3 0-5.3 2.4-5.3 5.3s2.4 5.3 5.3 5.3h3.6M70 25.7v1.7c0 1.4-1.2 2.6-2.6 2.6h-14.8c-1.4 0-2.6-1.2-2.6-2.6v-1.7M60 25.6v-15.6M66.4 19.2l-6.4 6.4-6.4-6.4"/><path class="st0" d="M100 12.9c0-2.1 5.7-3.8 12.6-3.8v18.1c-7 0-12.6 1.7-12.6 3.8 0-2.1-5.7-3.8-12.6-3.8v-18.2c6.9 0 12.6 1.7 12.6 3.9zM100 12.9v17.9M97.3 15.3c-1.8-.7-4.3-1.2-7.1-1.4M97.3 18.6c-1.8-.7-4.3-1.2-7.1-1.4M97.3 21.9c-1.8-.7-4.3-1.2-7.1-1.4M97.3 25.2c-1.8-.7-4.3-1.2-7.1-1.4M102.7 15.3c1.8-.7 4.3-1.2 7.1-1.4M102.7 18.6c1.8-.7 4.3-1.2 7.1-1.4M102.7 21.9c1.8-.7 4.3-1.2 7.1-1.4M102.7 25.2c1.8-.7 4.3-1.2 7.1-1.4"/><path class="st0" d="M169.5 10.1h4.7v4.7h-4.7zM177.6 10.1h4.7v4.7h-4.7zM185.8 10.1h4.7v4.7h-4.7zM169.5 17.6h4.7v4.7h-4.7zM177.6 17.6h4.7v4.7h-4.7zM185.8 17.6h4.7v4.7h-4.7zM169.5 25.2h4.7v4.7h-4.7zM177.6 25.2h4.7v4.7h-4.7zM185.8 25.2h4.7v4.7h-4.7zM62.5 76.7v8.2l-9.7 9.8h-17.7v7.8l-17.6-22.5 17.6-22.5v7.8h27.4zM52.4 94.2v-9.6h9.6M103.4 63v4.4l-6.8-7.4 6.8-7.4v4.4"/><path class="st0" d="M107.4 52.6v14.8l-6.7-7.4zM99.3 63v4.4l-6.7-7.4 6.7-7.4v4.4"/><path class="st0" d="M105 92.6v14.8l-6.8-7.4zM95 92.6v14.8"/><path class="st0" d="M177.5 76.7v8.2l9.7 9.8h17.7v7.8l17.6-22.5-17.6-22.5v7.8h-27.4zM187.6 94.2v-9.6h-9.6M136.6 62.9l-.1 4.4 6.8-7.4-6.7-7.4v4.4"/><path class="st0" d="M132.6 52.4l-.1 14.9 6.8-7.4zM140.6 62.9v4.4l6.8-7.4-6.7-7.4v4.4"/><path class="st0" d="M135 92.6v14.8l6.8-7.4zM145 92.6v14.8"/><path class="st1" d="M377.1 68.4h-3.4c-.8 0-1.5-.7-1.5-1.5v-13.5M386.2 51.6h-12.5c-.8 0-1.5.7-1.5 1.5s.7 1.5 1.5 1.5h12.5v2.3"/><circle class="st1" cx="383.2" cy="64" r="4.4"/><path class="st1" d="M383.2 65.9v-3.7M381.8 64.4l1.4 1.5 1.5-1.5M343.2 51.6h-9.8c-.8 0-1.5.7-1.5 1.5v13.9c0 .8.7 1.5 1.5 1.5h4.4"/><circle class="st1" cx="343.5" cy="64" r="4.4"/><path class="st1" d="M343.5 65.9v-3.7M342 64.4l1.5 1.5 1.5-1.5M335.1 65.5h.5M335.1 54.7h7.6M335.1 57.4h4.3M335.1 60.1h1.6M335.1 62.8h.3M377.1 108.4h-3.4c-.8 0-1.5-.7-1.5-1.5v-13.5M386.2 91.6h-12.5c-.8 0-1.5.7-1.5 1.5s.7 1.5 1.5 1.5h12.5M343.2 91.6h-9.8c-.8 0-1.5.7-1.5 1.5v13.9c0 .8.7 1.5 1.5 1.5h4.4M335.1 105.5h.5M335.1 94.7h7.6M335.1 97.4h5.3M335.1 100.1h2.6M335.1 102.8h1.3M303 51.5v5M297.8 51.5v17M307.4 51.5h-12.6c-2.5 0-4.5 2-4.5 4.5s2 4.5 4.5 4.5h3"/><circle class="st1" cx="305.1" cy="63.7" r="4.4"/><path class="st1" d="M305.1 65.6v-3.7M303.7 64.1l1.4 1.5 1.5-1.5"/><path class="st0" d="M272 98.2v4.5l-5.3 5.3h-9.7v4.3l-9.6-12.3 9.6-12.3v4.3h15zM267 108v-5h5"/><path class="st0" d="M288 98.2v4.5l5.3 5.3h9.7v4.3l9.6-12.3-9.6-12.3v4.3h-15zM293 108v-5h-5"/><path class="st3" d="M428 52.7l-16.4 6.8 6.4 2.5zM428 52.7l-2.9 13.2-7.1-3.9zM418 62v5.7l2.5-4.3"/><path class="st1" d="M428.2 102.2c.4.4 1 .4 1.4 0l1.9-1.9c.6-.6.6-1.5 0-2.1l-.9-.9c-.6-.6-1.5-.6-2.1 0l-1.9 1.9c-.4.4-.4 1 0 1.4M425.8 101.8c-.4-.4-1-.4-1.4 0l-1.9 1.9c-.6.6-.6 1.5 0 2.1l.9.9c.6.6 1.5.6 2.1 0l1.9-1.9c.4-.4.4-1 0-1.4M425.1 103.9l3.8-3.8M427 103"/><ellipse class="st1" cx="420.4" cy="93.8" rx="7.9" ry="3.3"/><path class="st1" d="M421.7 100.5h-1.2c-4.4 0-7.9-1.5-7.9-3.3M418.5 104.2c-3.4-.4-6-1.7-6-3.2M420.4 108c-4.4 0-7.9-1.5-7.9-3.3v-10.9M428.3 93.8M461 101.1h-8.3v-8.9h5M461.3 92.2h5v2"/><path class="st1" d="M457.7 91.5h3.7v1.5h-3.7zM460.9 101.1h-8.2c-.4 0-.7.3-.7.7 0 .4.3.7.7.7h6.4M459.1 102.6v4.4M454.6 107l2.2-4.4M459.1 90v1.5"/><path class="st1" d="M468.3 59.8h-7v-8.7h4.4l2.6 2.6zM465.7 51.1v2.6h2.6"/><path class="st1" d="M468.3 71.2h-7v-8.8h4.4l2.6 2.6zM465.7 62.4v2.6h2.6M452.6 51.1v.8M452.6 56.3v.9M452.6 53.7v.9h.8M452.6 58.9v.9M452.6 61.6v.8M452.6 64.2v.8M452.6 66.8v.9h.8M455.2 54.6h.9M457.8 54.6h.9M460.4 54.6h.9M455.2 67.7h.9M457.8 67.7h.9M460.4 67.7h.9"/><circle class="st1" cx="459.9" cy="20" r="8"/><path class="st1" d="M458.3 24.4h3.9M459 18.6h1.2v5.4"/><path class="st3" d="M459.9 15.7c-.2 0-.3.1-.3.3 0 .2.1.3.3.3.2 0 .3-.1.3-.3 0-.2-.1-.3-.3-.3z"/><path class="st4" d="M499.6 12c-4.4 0-8 3.6-8 8s3.6 8 8 8 8-3.6 8-8-3.6-8-8-8zm0 14.5v-13c3.6 0 6.5 2.9 6.5 6.5s-2.9 6.5-6.5 6.5z"/><path class="st5" d="M490 52.3h19.2v17.5h-19.2z"/><path class="st4" d="M490.8 52.5h4.4v17.5h-4.4z"/><path class="st6" d="M495.2 52.5h4.4v17.5h-4.4z"/><path class="st7" d="M499.6 52.5h4.4v17.5h-4.4z"/><path class="st8" d="M499.6 90.3v.9M499.6 108.8v.9"/><circle class="st4" cx="499.6" cy="100" r="5.5"/><path class="st8" d="M506.4 93.2l-.5.6M493.4 106.2l-.6.6M506.4 106.8l-.5-.6M493.4 93.8l-.6-.6M509.3 100h-.9M490.8 100h-.9"/><path class="st4" d="M531.3 12h3.8v3.8h-3.8z"/><path class="st9" d="M537.4 12h3.8v3.8h-3.8z"/><path class="st10" d="M543.5 12h3.8v3.8h-3.8z"/><path class="st11" d="M531.3 18.1h3.8v3.8h-3.8z"/><path class="st12" d="M537.4 18.1h3.8v3.8h-3.8z"/><path class="st11" d="M543.5 18.1h3.8v3.8h-3.8z"/><path class="st13" d="M531.3 24.2h3.8v3.8h-3.8z"/><path class="st9" d="M537.4 24.2h3.8v3.8h-3.8z"/><path class="st4" d="M543.5 24.2h3.8v3.8h-3.8z"/><path class="st5" d="M532.1 54.5h14.5v13.1h-14.5z"/><path class="st1" d="M540.8 92.5l-3.4 2.4 3.4 2.4M539.3 94.7c3.5 0 6.4 2.9 6.4 6.4s-2.9 6.4-6.4 6.4c-3.5 0-6.4-2.9-6.4-6.4"/><path class="st4" d="M532.1 67.7v-13.2h14.5"/></svg>