<?xml version="1.0" encoding="utf-8"?>
<!-- Generator: Adobe Illustrator 21.0.2, SVG Export Plug-In . SVG Version: 6.00 Build 0)  -->
<svg version="1.1" id="Ebene_1" xmlns="http://www.w3.org/2000/svg" xmlns:xlink="http://www.w3.org/1999/xlink" x="0px" y="0px"
	 width="220px" height="35px" viewBox="0 0 220 35" style="enable-background:new 0 0 220 35;" xml:space="preserve">
<style type="text/css">
	.st0{opacity:0.2;fill:#FFFFFF;}
	.st1{fill:#FFFFFF;}
</style>
<polygon class="st0" points="37.3,6.7 0,10.4 0,24.6 37.3,28.1 "/>
<polygon class="st0" points="33.5,4.9 0,10.4 0,24.6 33.5,30 "/>
<polygon class="st0" points="0,24.6 0,10.3 24.7,3.4 24.7,31.5 "/>
<polygon class="st0" points="0,24.6 0,10.3 20.5,2.5 20.5,32.4 "/>
<polygon class="st0" points="0,24.6 0,10.3 16.8,2 16.8,33.1 "/>
<polygon class="st0" points="29.2,4.4 0,10.4 0,24.6 29.2,31 "/>
<g>
	<path class="st1" d="M121.7,28.1h-3.1l-7.2-21.2h2.9l5.9,18.3h0.1l6.1-18.3h2.7L121.7,28.1z"/>
	<path class="st1" d="M131.8,6.9h2.6v21.2h-2.6V6.9z"/>
	<path class="st1" d="M154.2,27.4c-1.8,0.7-4.2,1.2-6.1,1.2c-7,0-9.6-4.7-9.6-11.1c0-6.5,3.6-11.1,8.9-11.1c6,0,8.4,4.8,8.4,10.5
		v1.3h-14.5c0,4.5,2.4,8.1,7,8.1c1.9,0,4.7-0.8,5.9-1.6V27.4z M152.9,16c0-3.7-1.5-7.3-5.4-7.3c-3.9,0-6.2,3.9-6.2,7.3H152.9z"/>
	<path class="st1" d="M181.4,28.1h-3.2l-5.8-18.3h-0.1l-5.8,18.3h-3.2l-6.8-21.2h2.9l5.6,18.3h0.1L171,6.9h3.2l5.6,18.3h0.1
		l5.9-18.3h2.6L181.4,28.1z"/>
	<path class="st1" d="M204.8,27.4c-1.8,0.7-4.2,1.2-6.1,1.2c-7,0-9.6-4.7-9.6-11.1c0-6.5,3.6-11.1,8.9-11.1c6,0,8.4,4.8,8.4,10.5
		v1.3h-14.5c0,4.5,2.4,8.1,7,8.1c1.9,0,4.7-0.8,5.9-1.6V27.4z M203.5,16c0-3.7-1.5-7.3-5.4-7.3c-3.9,0-6.2,3.9-6.2,7.3H203.5z"/>
	<path class="st1" d="M210.2,11.6c0-2.3,0-3.2-0.2-4.7h2.6V11h0.1c1-2.4,2.7-4.6,5.4-4.6c0.6,0,1.4,0.1,1.8,0.2v2.7
		c-0.5-0.2-1.2-0.2-1.9-0.2c-4.1,0-5.3,4.6-5.3,8.5v10.5h-2.6V11.6z"/>
</g>
<g>
	<g>
		<path class="st1" d="M46.4,28.1h11.3c3,0,5.6-0.6,7.4-2.3c1.8-1.6,3-4.2,3-8.3c0-4.4-1.1-7-2.8-8.6C63.5,7.3,61,6.8,58,6.8v0H46.4
			v4.6h7.9h2c1.5,0,2.5,0.5,3.1,1.5c0.6,1,0.8,2.5,0.8,4.3c0,1.8-0.2,3.3-0.7,4.3c-0.6,1-1.6,1.6-3.1,1.6H54v-7.5h-7.6V28.1z"/>
	</g>
	<polygon class="st1" points="69.8,28.1 77.4,28.1 77.4,20.3 86.9,20.3 86.9,15.5 77.4,15.5 77.4,11.4 86.9,11.4 86.9,6.8 69.8,6.8 
			"/>
	<g>
		<path class="st1" d="M92.2,9.1c-2.3,1.8-3.7,4.4-3.7,8c0,3.8,1.4,6.6,3.6,8.5c2.2,1.9,5.3,2.8,8.8,2.8c3.2,0,5.8-0.3,8.5-1.1v-9.8
			h-6.5v5.7l-0.1,0.1c-0.5,0.2-1.2,0.2-1.8,0.2c-1.7,0-2.9-0.7-3.6-1.8c-0.7-1.1-1-2.5-1-4.1c0-2,0.7-3.6,1.9-4.7
			c1.2-1.1,2.9-1.6,5-1.6c2.1,0,3.7,0.5,4.9,1.1V7.1c-1.9-0.5-3.4-0.8-7.2-0.8h0C97.5,6.4,94.4,7.3,92.2,9.1"/>
	</g>
</g>
<g>
</g>
<g>
</g>
<g>
</g>
<g>
</g>
<g>
</g>
<g>
</g>
<g>
</g>
<g>
</g>
<g>
</g>
<g>
</g>
<g>
</g>
<g>
</g>
<g>
</g>
<g>
</g>
<g>
</g>
</svg>
