<svg xmlns="http://www.w3.org/2000/svg" width="800" height="600" viewBox="0 0 800 600"><style type="text/css">.st0{fill:#0069AF;} .st1{fill:#3F85C1;} .st2{fill:#6DA5D5;} .st3{fill:#96C7E8;}</style><path class="st0" d="M-305.268 302.624l705.969-705.969 702.292 702.292-705.969 705.969z"/><path class="st1" d="M392.171 1000.057l705.969-705.969 4.879 4.879-705.969 705.969zM362.673 970.624l705.969-705.969 14.708 14.708-705.969 705.969zM234.983 842.882l705.969-705.969 63.851 63.851-705.969 705.969z"/><path class="st2" d="M387.205 995.075l705.969-705.969 4.879 4.879-705.969 705.969zM338.143 946.029l705.969-705.969 24.536 24.536-705.969 705.969zM131.823 739.734l705.969-705.969 103.166 103.166-705.969 705.969z"/><path class="st3" d="M377.387 985.306l705.969-705.969 9.829 9.829-705.969 705.969zM298.757 906.753l705.969-705.969 39.315 39.315-705.969 705.969zM-35.183 572.787l705.969-705.969 166.946 166.946-705.969 705.969z"/></svg>