<svg id="Layer_1" xmlns="http://www.w3.org/2000/svg" width="1400" height="1400" viewBox="0 0 1400 1400"><style>.st0,.st1,.st2{fill:none;stroke:#000;stroke-width:2;stroke-miterlimit:10}.st1,.st2{stroke-linejoin:round}.st2{stroke-linecap:round}</style><path class="st0" d="M687 153.5l-673 67v256.2l673 63.7z"/><path class="st0" d="M617.9 122.6L14 220.5v256.2l603.9 97.5z"/><path class="st0" d="M14.3 476.7V220.1L460.5 95.5v505.8z"/><path class="st0" d="M14.3 476.7V220.1L383.8 79v538.8z"/><path class="st0" d="M14.3 476.7V220.1L316.7 69.4v561.2z"/><path class="st0" d="M540.4 113L14 220.5v256.2l526.4 116.7z"/><path class="st1" d="M1003.5 233.6c0-22.6 18.7-41.3 41.3-41.3 22.8 0 41.3 18.5 41.3 41.3v165.3l121.7 41.3c27.3 8.8 36.2 41 29.8 68.9L1210 660.6H989.7L879.5 495.4c-12.5-19.1-13.8-55.1 13.8-55.1s55.1 11.5 110.2 96.4V233.6z"/><path class="st2" d="M1251.5 219.9h-82.7M1196.4 82.1l-55.1 55.1M1058.6 27v82.7M893.3 82.1l55.1 55.1M838.2 219.9h82.7"/><g><path class="st2" d="M465 1233.6l58.1 58 71.5-71.5-58-58.1c11.4-18.7 20.1-51.9 25.4-73.8h82v-75.8h-82.1c-5.3-21.9-13.9-55.1-25.3-73.9l58-58-71.5-71.5-58.1 58c-18.7-11.4-51.9-20.1-73.8-25.3v-82.1h-75.8v82.1c-21.9 5.3-55.1 13.9-73.8 25.3l-58.1-58-71.5 71.6 58.1 58c-11.4 18.7-20.1 51.9-25.4 73.8h-82v75.8h82c5.3 21.9 13.9 55.1 25.4 73.8l-58.1 58.1 71.5 71.5 58-58.1M315.4 1265.2h75.8M315.4 1315.7h75.8M353.3 1315.7v25.3"/><path class="st2" d="M501.7 1051.4c0-77.4-66.4-140.1-148.3-140.1S205.1 974 205.1 1051.4c0 63.8 48.6 117.7 110.4 134.5v28.6h75.8V1186c61.8-16.9 110.4-70.7 110.4-134.6z"/></g><g><path class="st1" d="M1310.1 800l-539.7 222.9 211.2 82.1zM1310.1 800l-93.9 434.1L981.6 1105zM981.6 1105v187.7l82.1-140.7"/></g></svg>