<svg viewBox="0 0 512 512" xmlns="http://www.w3.org/2000/svg"><path d="m256 0c-140.96875 0-256 115.050781-256 256 0 140.96875 115.050781 256 256 256 140.96875 0 256-115.050781 256-256 0-140.96875-115.050781-256-256-256zm0 482c-124.617188 0-226-101.382812-226-226s101.382812-226 226-226 226 101.382812 226 226-101.382812 226-226 226zm0 0"/><path d="m376 138.957031-88.027344 132.042969h41.535156c-6.835937 33.878906-36.824218 60-73.507812 60-20.71875 0-32.304688-7.21875-46.292969-14.445312l-49.726562 74.597656c16.378906 9.414062 47.097656 29.847656 96.019531 29.847656 86.355469 0 156.820312-66.101562 164.332031-150h43.695313zm15 102.042969c0 20.226562 2.953125 67.964844-39.542969 110.460938-25.496093 25.496093-59.394531 39.539062-95.457031 39.539062-18.1875 0-36.148438-3.667969-52.734375-10.695312l17.019531-25.527344c11.378906 4.09375 23.519532 6.222656 35.714844 6.222656 57.957031 0 105-46.855469 105-105v-15h-16.972656l31.972656-47.957031 31.972656 47.957031zm0 0"/><path d="m182.492188 241c6.835937-33.878906 36.824218-60 73.507812-60 20.722656 0 32.304688 7.214844 46.292969 14.441406l49.726562-74.589844c-16.378906-9.417968-47.097656-29.851562-96.019531-29.851562-86.335938 0-156.820312 66.078125-164.332031 150h-43.695313l88.027344 132.042969 88.027344-132.042969zm-14.519532 30-31.972656 47.957031-31.972656-47.957031h16.972656v-15c0-74.613281 60.378906-135 135-135 18.1875 0 36.148438 3.667969 52.734375 10.695312l-17.019531 25.527344c-11.378906-4.09375-23.515625-6.222656-35.714844-6.222656-57.957031 0-105 46.855469-105 105v15zm0 0"/></svg>