<svg viewBox="0 0 512 512" xmlns="http://www.w3.org/2000/svg"><path d="m256 0c-140.96875 0-256 115.050781-256 256 0 140.96875 115.050781 256 256 256 140.96875 0 256-115.050781 256-256 0-140.96875-115.050781-256-256-256zm0 482c-124.617188 0-226-101.382812-226-226s101.382812-226 226-226 226 101.382812 226 226-101.382812 226-226 226zm0 0"/><path d="m91 181v150h70l140 105v-360l-140 105zm60 120h-30v-90h30zm120 75-90-67.5v-105l90-67.5zm0 0"/><path d="m444.03125 224.179688-21.210938-21.210938-31.820312 31.816406-31.820312-31.816406-21.210938 21.210938 31.816406 31.820312-31.816406 31.820312 21.210938 21.210938 31.820312-31.816406 31.820312 31.816406 21.210938-21.210938-31.816406-31.820312zm0 0"/></svg>