<svg viewBox="0 0 512 512" xmlns="http://www.w3.org/2000/svg"><path d="m256 0c-68.113281 0-132.328125 26.703125-180.8125 75.1875s-75.1875 112.699219-75.1875 180.8125c0 140.96875 115.050781 256 256 256 140.96875 0 256-115.050781 256-256 0-140.96875-115.050781-256-256-256zm0 482c-124.617188 0-226-101.382812-226-226s101.382812-226 226-226 226 101.382812 226 226-101.382812 226-226 226zm0 0"/><path d="m394.640625 162.371094c-35.148437-35.179688-92.117187-35.199219-127.273437-.007813l-11.367188 11.363281-11.359375-11.355468c-35.148437-35.179688-92.117187-35.199219-127.273437-.007813-35.179688 35.164063-35.1875 92.101563-.003907 127.269531l138.636719 138.652344 138.632812-138.648437c35.175782-35.160157 35.191407-92.097657.007813-127.265625zm-21.21875 106.050781-117.421875 117.433594-117.421875-117.4375c-23.449219-23.4375-23.464844-61.386719.007813-84.84375 23.421874-23.445313 61.394531-23.460938 84.839843.007812l32.574219 32.554688 32.585938-32.5625c23.421874-23.445313 61.394531-23.460938 84.835937.007812 23.453125 23.4375 23.460937 61.390625 0 84.839844zm0 0"/></svg>