<?xml version="1.0" encoding="UTF-8" standalone="no"?>
<svg
   xmlns:dc="http://purl.org/dc/elements/1.1/"
   xmlns:cc="http://creativecommons.org/ns#"
   xmlns:rdf="http://www.w3.org/1999/02/22-rdf-syntax-ns#"
   xmlns:svg="http://www.w3.org/2000/svg"
   xmlns="http://www.w3.org/2000/svg"
   xmlns:sodipodi="http://sodipodi.sourceforge.net/DTD/sodipodi-0.dtd"
   xmlns:inkscape="http://www.inkscape.org/namespaces/inkscape"
   inkscape:version="1.0 (6e3e5246a0, 2020-05-07)"
   sodipodi:docname="icon-nextframe.svg"
   id="svg62"
   version="1.1"
   viewBox="0 0 512 512">
  <path
     id="path58"
     d="m256 512c-140.96875 0-256-115.050781-256-256 0-140.96875 115.050781-256 256-256 140.96875 0 256 115.050781 256 256 0 140.96875-115.050781 256-256 256zm0-482c-124.617188 0-226 101.382812-226 226s101.382812 226 226 226 226-101.382812 226-226-101.382812-226-226-226zm0 0" />
  <path
          id="path76"
          style="font-size:154.961px"
          d="m 212.68013,206.95469 v 42.14506 h 42.14506 v 12.86294 h -42.14506 v 42.14506 h -12.71161 v -42.14506 h -42.14505 v -12.86294 h 42.14505 v -42.14506 z" />
  <path
          id="path78"
          style="font-size:154.961px"
          d="m 290.4631,291.2448 h 24.96925 v -86.18172 l -27.16351,5.44784 v -13.92224 l 27.01218,-5.44784 h 15.2842 V 291.2448 h 24.96924 v 12.86295 H 290.4631 Z" />
</svg>
