<svg viewBox="0 0 512 512" xmlns="http://www.w3.org/2000/svg"><path d="m256 0c-140.96875 0-256 115.050781-256 256 0 140.96875 115.050781 256 256 256 140.96875 0 256-115.050781 256-256 0-140.96875-115.050781-256-256-256zm0 482c-124.617188 0-226-101.382812-226-226s101.382812-226 226-226 226 101.382812 226 226-101.382812 226-226 226zm0 0"/><path d="m316 211c33.085938 0 60-26.914062 60-60s-26.914062-60-60-60-60 26.914062-60 60c0 6.464844 1.039062 12.691406 2.941406 18.53125l-67.019531 42.648438c-10.726563-10.027344-25.117187-16.179688-40.921875-16.179688-33.085938 0-60 26.914062-60 60s26.914062 60 60 60c15.804688 0 30.195312-6.152344 40.921875-16.179688l67.019531 42.648438c-1.902344 5.839844-2.941406 12.066406-2.941406 18.53125 0 33.085938 26.914062 60 60 60s60-26.914062 60-60-26.914062-60-60-60c-15.804688 0-30.195312 6.152344-40.921875 16.179688l-67.019531-42.648438c1.902344-5.839844 2.941406-12.066406 2.941406-18.53125s-1.039062-12.691406-2.941406-18.53125l67.019531-42.648438c10.726563 10.027344 25.117187 16.179688 40.921875 16.179688zm0-90c16.542969 0 30 13.457031 30 30s-13.457031 30-30 30-30-13.457031-30-30 13.457031-30 30-30zm-165 165c-16.542969 0-30-13.457031-30-30s13.457031-30 30-30 30 13.457031 30 30-13.457031 30-30 30zm165 45c16.542969 0 30 13.457031 30 30s-13.457031 30-30 30-30-13.457031-30-30 13.457031-30 30-30zm0 0"/></svg>