<svg viewBox="0 0 512 512" xmlns="http://www.w3.org/2000/svg"><path d="m256 0c-140.96875 0-256 115.050781-256 256 0 140.96875 115.050781 256 256 256 140.96875 0 256-115.050781 256-256 0-140.96875-115.050781-256-256-256zm0 482c-124.617188 0-226-101.382812-226-226s101.382812-226 226-226 226 101.382812 226 226-101.382812 226-226 226zm0 0"/><path d="m310.046875 181.613281-54.046875-109.507812-54.046875 109.507812-120.847656 17.5625 87.449219 85.238281-20.644532 120.359376 108.089844-56.828126 108.089844 56.828126-20.644532-120.359376 87.445313-85.238281zm14.199219 168.320313-68.246094-35.878906-68.246094 35.878906 13.035156-75.996094-55.214843-53.816406 76.304687-11.085938 34.121094-69.140625 34.121094 69.140625 76.304687 11.085938-55.214843 53.816406zm0 0"/></svg>