<svg viewBox="0 0 512 512" xmlns="http://www.w3.org/2000/svg"><path d="m256 0c-140.949219 0-256 115.03125-256 256 0 140.949219 115.03125 256 256 256 140.949219 0 256-115.03125 256-256 0-140.949219-115.03125-256-256-256zm0 482c-124.617188 0-226-101.382812-226-226s101.382812-226 226-226 226 101.382812 226 226-101.382812 226-226 226zm0 0"/><path d="m121 331h60v60h30v-90h-90zm0 0"/><path d="m181 181h-60v30h90v-90h-30zm0 0"/><path d="m331 121h-30v90h90v-30h-60zm0 0"/><path d="m301 391h30v-60h60v-30h-90zm0 0"/></svg>