<svg viewBox="0 0 512 512" xmlns="http://www.w3.org/2000/svg"><path d="m436.8125 75.1875c-48.484375-48.484375-112.699219-75.1875-180.8125-75.1875s-132.328125 26.703125-180.8125 75.1875-75.1875 112.699219-75.1875 180.8125 26.703125 132.328125 75.1875 180.8125 112.699219 75.1875 180.8125 75.1875 132.328125-26.703125 180.8125-75.1875 75.1875-112.699219 75.1875-180.8125-26.703125-132.328125-75.1875-180.8125zm-180.8125 406.8125c-124.617188 0-226-101.382812-226-226s101.382812-226 226-226 226 101.382812 226 226-101.382812 226-226 226zm0 0"/><path d="m286 237.25-135-101.25v240l135-101.25v86.25h90v-210h-90zm-105 78.75v-120l80 60zm135-135h30v150h-30zm0 0"/></svg>