<svg viewBox="0 0 512 512" xmlns="http://www.w3.org/2000/svg"><path d="m256 0c-140.96875 0-256 115.050781-256 256 0 140.96875 115.050781 256 256 256 140.96875 0 256-115.050781 256-256 0-140.96875-115.050781-256-256-256zm0 482c-124.617188 0-226-101.382812-226-226s101.382812-226 226-226 226 101.382812 226 226-101.382812 226-226 226zm0 0"/><path d="m181 273.578125v-152.578125h-30v152.578125c-17.460938 6.195313-30 22.867187-30 42.421875s12.539062 36.226562 30 42.421875v32.578125h30v-32.578125c17.460938-6.195313 30-22.867187 30-42.421875s-12.539062-36.226562-30-42.421875zm-15 57.421875c-8.269531 0-15-6.730469-15-15s6.730469-15 15-15 15 6.730469 15 15-6.730469 15-15 15zm0 0"/><path d="m301 196c0-19.554688-12.539062-36.226562-30-42.421875v-32.578125h-30v32.578125c-17.460938 6.195313-30 22.867187-30 42.421875s12.539062 36.226562 30 42.421875v152.578125h30v-152.578125c17.460938-6.195313 30-22.867187 30-42.421875zm-45 15c-8.269531 0-15-6.730469-15-15s6.730469-15 15-15 15 6.730469 15 15-6.730469 15-15 15zm0 0"/><path d="m361 273.578125v-152.578125h-30v152.578125c-17.460938 6.195313-30 22.867187-30 42.421875s12.539062 36.226562 30 42.421875v32.578125h30v-32.578125c17.460938-6.195313 30-22.867187 30-42.421875s-12.539062-36.226562-30-42.421875zm-15 57.421875c-8.269531 0-15-6.730469-15-15s6.730469-15 15-15 15 6.730469 15 15-6.730469 15-15 15zm0 0"/></svg>