<svg viewBox="0 0 512 512" xmlns="http://www.w3.org/2000/svg"><path d="m256 0c-140.96875 0-256 115.050781-256 256 0 140.96875 115.050781 256 256 256 140.96875 0 256-115.050781 256-256 0-140.96875-115.050781-256-256-256zm0 482c-124.617188 0-226-101.382812-226-226s101.382812-226 226-226 226 101.382812 226 226-101.382812 226-226 226zm0 0"/><path d="m301 121h-120c-41.355469 0-75 33.644531-75 75v104.378906l90-72v-17.378906h105v46.210938l114.011719-91.210938-114.011719-91.210938zm30 16.210938 35.988281 28.789062-35.988281 28.789062v-13.789062h-165v32.960938l-30 24v-41.960938c0-24.8125 20.1875-45 45-45h150zm0 0"/><path d="m316 301h-105v-46.210938l-114.011719 91.210938 114.011719 91.210938v-46.210938h120c41.355469 0 75-33.644531 75-75v-104.371094l-90 71.996094zm30-2.953125 30-24v41.953125c0 24.8125-20.1875 45-45 45h-150v13.789062l-35.988281-28.789062 35.988281-28.789062v13.789062h165zm0 0"/></svg>