<svg viewBox="0 0 512 512" xmlns="http://www.w3.org/2000/svg"><path d="m256 0c-140.96875 0-256 115.050781-256 256 0 140.96875 115.050781 256 256 256 140.96875 0 256-115.050781 256-256 0-140.96875-115.050781-256-256-256zm0 482c-124.617188 0-226-101.382812-226-226s101.382812-226 226-226 226 101.382812 226 226-101.382812 226-226 226zm0 0"/><path d="m181 151h210v30h-210zm0 0"/><path d="m121 151h30v30h-30zm0 0"/><path d="m181 211h210v30h-210zm0 0"/><path d="m121 211h30v30h-30zm0 0"/><path d="m181 271h210v30h-210zm0 0"/><path d="m121 271h30v30h-30zm0 0"/><path d="m181 331h210v30h-210zm0 0"/><path d="m121 331h30v30h-30zm0 0"/></svg>